<svg width="710" height="630" viewBox="0 0 710 630" fill="none" xmlns="http://www.w3.org/2000/svg">
<g clip-path="url(#clip0_86_2)">
<path d="M473.452 284.396C474.313 284.206 475.203 284.187 476.071 284.34C476.939 284.494 477.768 284.817 478.512 285.292C479.255 285.766 479.897 286.382 480.402 287.105C480.908 287.827 481.266 288.642 481.456 289.503C481.481 289.628 481.531 289.746 481.602 289.852C481.674 289.957 481.766 290.047 481.873 290.116C481.979 290.186 482.099 290.233 482.224 290.256C482.35 290.279 482.478 290.276 482.602 290.249C482.727 290.222 482.844 290.17 482.949 290.096C483.053 290.023 483.141 289.929 483.209 289.821C483.276 289.713 483.321 289.593 483.342 289.467C483.363 289.342 483.358 289.213 483.328 289.089C483.084 287.983 482.624 286.935 481.974 286.006C481.325 285.077 480.499 284.285 479.543 283.675C478.588 283.065 477.521 282.65 476.405 282.452C475.289 282.254 474.145 282.279 473.038 282.523C472.793 282.582 472.582 282.734 472.448 282.947C472.315 283.16 472.27 283.417 472.325 283.663C472.379 283.908 472.527 284.123 472.738 284.26C472.949 284.397 473.205 284.446 473.452 284.396Z" fill="#9AB3D2"/>
<path d="M474.28 288.144C475.024 287.98 475.804 288.118 476.446 288.528C477.089 288.938 477.543 289.587 477.708 290.331C477.763 290.58 477.914 290.796 478.129 290.933C478.343 291.07 478.604 291.117 478.852 291.062C479.101 291.007 479.318 290.855 479.455 290.64C479.592 290.426 479.638 290.165 479.583 289.917C479.447 289.302 479.192 288.72 478.831 288.203C478.47 287.687 478.011 287.247 477.48 286.908C476.949 286.569 476.357 286.339 475.736 286.229C475.116 286.119 474.48 286.132 473.865 286.268C473.621 286.327 473.409 286.479 473.276 286.692C473.142 286.905 473.098 287.162 473.152 287.408C473.206 287.654 473.355 287.868 473.566 288.005C473.776 288.142 474.033 288.191 474.279 288.141L474.28 288.144ZM460.332 294.17C460.118 294.033 459.966 293.817 459.911 293.568C459.856 293.32 459.903 293.06 460.039 292.845C460.176 292.631 460.393 292.48 460.641 292.425C460.889 292.37 461.149 292.416 461.364 292.553C461.578 292.69 461.729 292.906 461.784 293.154C461.839 293.403 461.793 293.663 461.656 293.877C461.519 294.092 461.303 294.243 461.055 294.298C460.806 294.353 460.546 294.307 460.332 294.17ZM468.124 298.004C467.987 298.219 467.941 298.479 467.996 298.727C468.051 298.976 468.202 299.192 468.417 299.329C468.631 299.466 468.891 299.512 469.14 299.457C469.388 299.402 469.604 299.251 469.741 299.036C469.878 298.822 469.924 298.562 469.869 298.313C469.814 298.065 469.663 297.849 469.449 297.712C469.234 297.575 468.974 297.529 468.726 297.584C468.477 297.639 468.261 297.79 468.124 298.004ZM471.651 301.392C471.436 301.256 471.285 301.039 471.23 300.791C471.175 300.542 471.221 300.282 471.358 300.068C471.495 299.854 471.711 299.702 471.96 299.647C472.208 299.593 472.468 299.639 472.682 299.775C472.897 299.912 473.048 300.129 473.103 300.377C473.158 300.625 473.112 300.885 472.975 301.1C472.838 301.314 472.622 301.465 472.373 301.52C472.125 301.575 471.865 301.529 471.651 301.392ZM474.592 302.132C474.455 302.346 474.409 302.606 474.464 302.854C474.519 303.103 474.67 303.319 474.885 303.456C475.099 303.593 475.359 303.639 475.607 303.584C475.856 303.529 476.072 303.378 476.209 303.163C476.346 302.949 476.392 302.689 476.337 302.441C476.282 302.192 476.131 301.976 475.916 301.839C475.702 301.702 475.442 301.656 475.194 301.711C474.945 301.766 474.729 301.917 474.592 302.132ZM477.826 304.195C477.689 304.41 477.643 304.67 477.698 304.918C477.753 305.166 477.904 305.383 478.118 305.519C478.333 305.656 478.593 305.702 478.841 305.647C479.09 305.593 479.306 305.441 479.443 305.227C479.58 305.012 479.626 304.752 479.571 304.504C479.516 304.256 479.365 304.039 479.15 303.903C478.936 303.766 478.676 303.72 478.427 303.775C478.179 303.829 477.963 303.981 477.826 304.195Z" fill="#9AB3D2"/>
<path d="M470.032 280.659C470.068 280.536 470.079 280.406 470.063 280.278C470.048 280.15 470.007 280.026 469.943 279.914C469.879 279.802 469.793 279.704 469.69 279.626C469.587 279.548 469.47 279.492 469.345 279.46C469.22 279.429 469.089 279.423 468.962 279.443C468.835 279.463 468.712 279.509 468.603 279.577C468.494 279.645 468.399 279.735 468.325 279.841C468.251 279.946 468.199 280.066 468.173 280.192L465.539 290.667L461.81 288.287C461.167 287.877 460.387 287.739 459.642 287.903C458.897 288.068 458.248 288.522 457.837 289.165L455.774 292.399C455.363 293.042 455.225 293.822 455.39 294.567C455.554 295.312 456.008 295.962 456.651 296.372L457.46 296.888C457.323 297.102 457.277 297.362 457.332 297.611C457.387 297.859 457.538 298.076 457.752 298.212L460.986 300.276C461.201 300.413 461.461 300.459 461.709 300.404C461.958 300.349 462.174 300.198 462.311 299.983L472.013 306.174C471.876 306.388 471.83 306.648 471.885 306.897C471.939 307.145 472.091 307.362 472.305 307.498L475.539 309.562C475.753 309.699 476.013 309.745 476.262 309.69C476.51 309.635 476.727 309.484 476.863 309.269L477.672 309.785C478.315 310.196 479.095 310.334 479.84 310.169C480.585 310.005 481.235 309.551 481.645 308.908L483.709 305.674C484.119 305.03 484.257 304.25 484.093 303.505C483.928 302.76 483.474 302.111 482.831 301.701L479.102 299.321L487.492 292.52C487.595 292.443 487.682 292.345 487.747 292.234C487.811 292.122 487.853 291.999 487.869 291.87C487.885 291.742 487.874 291.613 487.839 291.489C487.803 291.364 487.743 291.249 487.662 291.149C487.581 291.048 487.48 290.966 487.366 290.905C487.252 290.845 487.127 290.808 486.999 290.797C486.87 290.786 486.741 290.801 486.618 290.841C486.496 290.881 486.382 290.946 486.285 291.031L477.398 298.234L467.243 291.754L470.032 280.659ZM481.799 303.317C482.013 303.454 482.165 303.671 482.22 303.919C482.274 304.167 482.228 304.427 482.092 304.642L480.028 307.876C479.891 308.09 479.675 308.241 479.426 308.296C479.178 308.351 478.918 308.305 478.704 308.168L457.683 294.755C457.469 294.618 457.318 294.402 457.263 294.154C457.208 293.905 457.254 293.645 457.391 293.431L459.454 290.197C459.591 289.982 459.807 289.831 460.056 289.776C460.304 289.721 460.564 289.767 460.779 289.904L481.799 303.317Z" fill="#9AB3D2"/>
<path d="M475.708 291.467C475.572 291.682 475.355 291.833 475.107 291.888C474.859 291.943 474.599 291.897 474.384 291.76C474.17 291.623 474.018 291.407 473.964 291.158C473.909 290.91 473.955 290.65 474.092 290.436C474.228 290.221 474.445 290.07 474.693 290.015C474.941 289.96 475.201 290.006 475.416 290.143C475.63 290.28 475.782 290.496 475.836 290.745C475.891 290.993 475.845 291.253 475.708 291.467Z" fill="#9AB3D2"/>
</g>
<g clip-path="url(#clip1_86_2)">
<path d="M129.152 560.852C129.717 560.175 130.41 559.617 131.191 559.208C131.973 558.799 132.827 558.548 133.705 558.469C134.584 558.391 135.469 558.486 136.31 558.749C137.152 559.013 137.933 559.439 138.61 560.005C138.706 560.088 138.818 560.152 138.939 560.191C139.061 560.231 139.188 560.246 139.315 560.236C139.442 560.225 139.566 560.19 139.679 560.131C139.792 560.073 139.892 559.992 139.974 559.895C140.056 559.797 140.117 559.684 140.155 559.562C140.192 559.44 140.205 559.312 140.193 559.186C140.18 559.059 140.143 558.936 140.082 558.824C140.021 558.712 139.939 558.613 139.84 558.533C138.97 557.806 137.965 557.257 136.883 556.919C135.802 556.58 134.663 556.458 133.534 556.559C132.405 556.66 131.307 556.983 130.302 557.508C129.298 558.034 128.406 558.752 127.68 559.622C127.522 559.818 127.447 560.068 127.472 560.318C127.496 560.569 127.618 560.799 127.811 560.96C128.004 561.122 128.253 561.201 128.504 561.181C128.754 561.16 128.987 561.042 129.152 560.852Z" fill="#9AB3D2"/>
<path d="M132.098 563.314C132.587 562.729 133.288 562.362 134.048 562.294C134.808 562.226 135.563 562.462 136.149 562.951C136.344 563.114 136.596 563.193 136.85 563.17C137.104 563.148 137.338 563.025 137.501 562.83C137.665 562.634 137.744 562.382 137.721 562.128C137.698 561.874 137.576 561.64 137.38 561.477C136.897 561.073 136.339 560.768 135.738 560.58C135.136 560.391 134.504 560.323 133.877 560.38C133.249 560.436 132.639 560.615 132.081 560.907C131.523 561.199 131.027 561.598 130.624 562.082C130.466 562.278 130.391 562.528 130.416 562.778C130.44 563.028 130.562 563.259 130.755 563.42C130.948 563.581 131.197 563.661 131.448 563.64C131.698 563.62 131.931 563.502 132.096 563.312L132.098 563.314ZM124.736 576.609C124.483 576.631 124.231 576.553 124.036 576.389C123.841 576.226 123.718 575.992 123.695 575.739C123.673 575.486 123.752 575.233 123.915 575.038C124.078 574.843 124.312 574.721 124.565 574.698C124.819 574.675 125.071 574.754 125.266 574.917C125.461 575.08 125.584 575.314 125.606 575.568C125.629 575.821 125.55 576.073 125.387 576.268C125.224 576.464 124.99 576.586 124.736 576.609ZM133.25 574.883C133.272 575.136 133.395 575.37 133.59 575.534C133.785 575.697 134.037 575.776 134.291 575.753C134.544 575.73 134.778 575.608 134.941 575.412C135.104 575.217 135.183 574.965 135.16 574.712C135.138 574.458 135.015 574.224 134.82 574.061C134.625 573.898 134.373 573.819 134.119 573.842C133.866 573.865 133.632 573.987 133.469 574.182C133.306 574.378 133.227 574.63 133.25 574.883ZM138.112 575.41C137.859 575.433 137.607 575.354 137.412 575.191C137.216 575.028 137.094 574.794 137.071 574.541C137.049 574.287 137.127 574.035 137.291 573.84C137.454 573.645 137.688 573.522 137.941 573.5C138.194 573.477 138.447 573.556 138.642 573.719C138.837 573.882 138.959 574.116 138.982 574.369C139.005 574.623 138.926 574.875 138.763 575.07C138.6 575.265 138.366 575.388 138.112 575.41ZM140.893 574.198C140.916 574.452 141.038 574.686 141.233 574.849C141.429 575.012 141.681 575.091 141.934 575.068C142.187 575.045 142.421 574.923 142.584 574.728C142.748 574.533 142.826 574.281 142.804 574.027C142.781 573.774 142.659 573.54 142.463 573.377C142.268 573.213 142.016 573.135 141.763 573.157C141.509 573.18 141.275 573.302 141.112 573.498C140.949 573.693 140.87 573.945 140.893 574.198ZM144.715 573.856C144.737 574.109 144.86 574.343 145.055 574.506C145.25 574.67 145.502 574.748 145.756 574.726C146.009 574.703 146.243 574.581 146.406 574.385C146.569 574.19 146.648 573.938 146.625 573.685C146.603 573.431 146.48 573.197 146.285 573.034C146.09 572.871 145.838 572.792 145.584 572.815C145.331 572.838 145.097 572.96 144.934 573.155C144.771 573.351 144.692 573.603 144.715 573.856Z" fill="#9AB3D2"/>
<path d="M124.16 559.984C124.113 559.864 124.042 559.754 123.952 559.662C123.862 559.57 123.754 559.497 123.634 559.447C123.515 559.398 123.387 559.373 123.258 559.374C123.129 559.375 123.002 559.403 122.884 559.454C122.765 559.506 122.659 559.581 122.57 559.674C122.481 559.768 122.412 559.879 122.368 560C122.323 560.121 122.303 560.249 122.309 560.378C122.315 560.507 122.347 560.634 122.403 560.75L126.718 570.653L122.312 571.048C121.552 571.116 120.85 571.483 120.361 572.069C119.871 572.654 119.634 573.41 119.703 574.171L120.045 577.992C120.113 578.752 120.48 579.454 121.066 579.944C121.652 580.433 122.408 580.67 123.168 580.602L124.123 580.516C124.146 580.77 124.268 581.004 124.464 581.167C124.659 581.33 124.911 581.409 125.164 581.386L128.986 581.044C129.239 581.021 129.473 580.899 129.637 580.703C129.8 580.508 129.879 580.256 129.856 580.003L141.321 578.976C141.344 579.229 141.466 579.463 141.661 579.626C141.856 579.789 142.108 579.868 142.362 579.845L146.184 579.503C146.437 579.48 146.671 579.358 146.834 579.163C146.997 578.967 147.076 578.715 147.053 578.462L148.009 578.376C148.769 578.308 149.471 577.941 149.96 577.355C150.45 576.77 150.686 576.014 150.618 575.253L150.276 571.432C150.208 570.672 149.841 569.97 149.255 569.48C148.669 568.991 147.913 568.754 147.153 568.822L142.747 569.217L145.233 558.705C145.268 558.58 145.277 558.45 145.26 558.322C145.243 558.194 145.2 558.071 145.135 557.96C145.069 557.849 144.982 557.752 144.878 557.676C144.774 557.599 144.655 557.545 144.53 557.515C144.404 557.485 144.274 557.481 144.147 557.503C144.02 557.525 143.898 557.572 143.79 557.642C143.681 557.712 143.588 557.803 143.515 557.909C143.443 558.016 143.393 558.136 143.368 558.263L140.733 569.397L128.732 570.472L124.16 559.984ZM147.324 570.733C147.577 570.71 147.83 570.789 148.025 570.952C148.22 571.116 148.342 571.35 148.365 571.603L148.707 575.425C148.73 575.678 148.651 575.93 148.488 576.125C148.325 576.32 148.091 576.443 147.838 576.466L122.997 578.691C122.743 578.714 122.491 578.635 122.296 578.472C122.101 578.308 121.978 578.074 121.956 577.821L121.613 573.999C121.591 573.746 121.67 573.494 121.833 573.299C121.996 573.104 122.23 572.981 122.483 572.958L147.324 570.733Z" fill="#9AB3D2"/>
<path d="M135.26 565.072C135.283 565.325 135.204 565.578 135.041 565.773C134.877 565.968 134.643 566.09 134.39 566.113C134.137 566.136 133.885 566.057 133.689 565.894C133.494 565.731 133.372 565.497 133.349 565.243C133.326 564.99 133.405 564.738 133.568 564.543C133.732 564.347 133.966 564.225 134.219 564.202C134.472 564.18 134.724 564.258 134.92 564.422C135.115 564.585 135.237 564.819 135.26 565.072Z" fill="#9AB3D2"/>
</g>
<g clip-path="url(#clip2_86_2)">
<path d="M298.502 210.648C305.885 207.471 309.304 198.887 306.127 191.504C302.95 184.12 294.366 180.701 286.983 183.878C279.599 187.055 276.18 195.639 279.357 203.023C282.534 210.406 291.118 213.825 298.502 210.648ZM284.674 207.055L290.096 204.67C291.638 206.591 293.564 208.27 295.763 209.575C291.811 210.559 287.711 209.534 284.674 207.055ZM287.622 195.116L294.401 192.2C295.92 194.361 296.969 196.8 297.538 199.37L290.734 202.349C289.207 200.166 288.148 197.705 287.622 195.116ZM297.319 208.317C295.207 207.153 293.387 205.659 291.909 203.89L297.828 201.292C298.075 203.591 297.918 205.961 297.319 208.317ZM299.288 208.135C299.877 205.579 299.972 203.005 299.61 200.5L305.399 197.958C305.174 202.072 302.942 205.923 299.288 208.135ZM304.4 192.247C304.92 193.456 305.228 194.705 305.368 195.924L299.277 198.596C298.687 196.036 297.625 193.627 296.15 191.447L302.216 188.837C303.097 189.814 303.852 190.973 304.4 192.247ZM300.739 187.426L294.997 189.897C293.442 188.007 291.547 186.34 289.348 185.035C293.392 183.909 297.622 184.878 300.739 187.426ZM293.205 190.668L287.333 193.194C287.104 190.939 287.267 188.642 287.863 186.339C289.944 187.491 291.724 188.951 293.205 190.668ZM285.879 186.605C285.327 189.068 285.216 191.546 285.541 193.965L280.1 196.306C280.397 192.417 282.469 188.788 285.879 186.605ZM285.874 195.869C286.451 198.46 287.501 200.9 288.964 203.111L283.218 205.634C282.337 204.657 281.623 203.532 281.084 202.279C280.536 201.006 280.213 199.661 280.109 198.349L285.874 195.869Z" fill="#9AB3D2"/>
</g>
<g clip-path="url(#clip3_86_2)">
<path d="M396.297 51.5933C398.011 49.2893 400.479 47.6589 403.27 46.9857C406.062 46.3124 409.002 46.6389 411.578 47.9084" stroke="#9AB3D2" stroke-width="3" stroke-linecap="round" stroke-linejoin="round"/>
<path d="M391.482 48.6772C393.98 45.1166 397.691 42.5895 401.919 41.5699C406.147 40.5504 410.601 41.1084 414.447 43.1393" stroke="#9AB3D2" stroke-width="3" stroke-linecap="round" stroke-linejoin="round"/>
<path d="M401.06 54.5329C401.973 53.4844 403.189 52.7461 404.541 52.4201C405.892 52.0942 407.312 52.1969 408.602 52.714" stroke="#9AB3D2" stroke-width="3" stroke-linecap="round" stroke-linejoin="round"/>
<path d="M405.844 57.8467L405.855 57.844" stroke="#9AB3D2" stroke-width="3" stroke-linecap="round" stroke-linejoin="round"/>
</g>
<g clip-path="url(#clip4_86_2)">
<path d="M645.583 420.095C648.234 418.39 651.4 417.669 654.528 418.057C657.656 418.444 660.549 419.916 662.705 422.216" stroke="#9AB3D2" stroke-width="3" stroke-linecap="round" stroke-linejoin="round"/>
<path d="M641.764 415.239C645.706 412.546 650.495 411.384 655.232 411.971C659.97 412.558 664.33 414.853 667.496 418.426" stroke="#9AB3D2" stroke-width="3" stroke-linecap="round" stroke-linejoin="round"/>
<path d="M649.339 424.956C650.683 424.232 652.218 423.943 653.732 424.131C655.247 424.318 656.665 424.973 657.791 426.003" stroke="#9AB3D2" stroke-width="3" stroke-linecap="round" stroke-linejoin="round"/>
<path d="M652.973 430.209L652.986 430.211" stroke="#9AB3D2" stroke-width="3" stroke-linecap="round" stroke-linejoin="round"/>
</g>
<g clip-path="url(#clip5_86_2)">
<path d="M70.3247 316.035L68.3203 315.895C68.5027 313.238 67.6236 310.617 65.8759 308.607C64.1282 306.597 61.6546 305.362 58.9977 305.174L59.1376 303.169C62.3258 303.396 65.2941 304.877 67.3914 307.289C69.4886 309.701 70.5436 312.846 70.3247 316.035Z" fill="#9AB3D2"/>
<path d="M66.3159 315.755L64.3115 315.615C64.421 314.021 63.8936 312.448 62.8449 311.242C61.7963 310.036 60.3121 309.296 58.718 309.183L58.8578 307.178C60.9833 307.329 62.9622 308.317 64.3604 309.925C65.7585 311.533 66.4618 313.629 66.3159 315.755Z" fill="#9AB3D2"/>
<path d="M55.3149 329.087L55.5275 326.04C56.8261 326.266 58.1568 326.232 59.4422 325.94C60.7277 325.648 61.9424 325.104 63.0159 324.339C63.2275 324.19 63.4055 323.998 63.5385 323.776C63.6716 323.554 63.7567 323.306 63.7884 323.049C63.8182 322.799 63.7954 322.545 63.7214 322.304C63.6474 322.063 63.5237 321.84 63.3584 321.649L58.6434 316.227L61.4159 313.816L60.0976 312.3L57.3251 314.711L52.6097 309.287C52.4434 309.098 52.2397 308.945 52.0114 308.839C51.7831 308.732 51.5352 308.674 51.2833 308.668C51.0244 308.664 50.7675 308.714 50.529 308.815C50.2906 308.916 50.076 309.066 49.899 309.255C48.411 310.83 47.4748 312.846 47.2315 315C46.9881 317.153 47.4506 319.327 48.5495 321.195L45.5728 328.407L41.2841 328.108L41.1443 330.112L69.2057 332.07L69.3456 330.066L55.3149 329.087ZM51.2355 310.769L61.7008 322.805C60.0744 323.894 58.1065 324.352 56.1664 324.094C54.2262 323.835 52.4471 322.877 51.1627 321.4C49.8784 319.923 49.1772 318.028 49.1906 316.071C49.204 314.114 49.9311 312.228 51.2355 310.769ZM53.3105 328.947L47.6857 328.554L49.959 323.046C50.9646 324.111 52.191 324.942 53.5522 325.483L53.3105 328.947Z" fill="#9AB3D2"/>
</g>
<g clip-path="url(#clip6_86_2)">
<path d="M524.855 538.939L522.903 539.556C522.082 536.969 520.268 534.814 517.859 533.562C515.45 532.311 512.644 532.066 510.055 532.882L509.438 530.93C512.544 529.951 515.912 530.245 518.802 531.746C521.693 533.248 523.87 535.835 524.855 538.939Z" fill="#9AB3D2"/>
<path d="M520.951 540.174L518.998 540.791C518.506 539.239 517.417 537.945 515.972 537.195C514.527 536.444 512.843 536.297 511.29 536.786L510.672 534.834C512.743 534.182 514.989 534.378 516.916 535.379C518.842 536.38 520.294 538.104 520.951 540.174Z" fill="#9AB3D2"/>
<path d="M515.511 556.926L514.573 553.959C515.888 553.687 517.137 553.157 518.246 552.399C519.355 551.642 520.303 550.671 521.034 549.544C521.179 549.324 521.276 549.075 521.319 548.815C521.362 548.555 521.35 548.288 521.284 548.033C521.218 547.784 521.102 547.552 520.941 547.351C520.781 547.151 520.581 546.986 520.353 546.867L513.855 543.491L515.581 540.169L513.764 539.225L512.038 542.547L505.539 539.171C505.311 539.054 505.06 538.985 504.804 538.97C504.548 538.954 504.291 538.992 504.05 539.08C503.803 539.173 503.578 539.317 503.39 539.502C503.202 539.686 503.055 539.909 502.957 540.154C502.136 542.204 502.003 544.465 502.578 546.598C503.153 548.73 504.405 550.618 506.146 551.977L506.023 559.926L501.845 561.247L502.463 563.2L529.794 554.557L529.177 552.604L515.511 556.926ZM504.791 541.09L519.214 548.582C518.08 550.223 516.386 551.394 514.45 551.875C512.514 552.355 510.469 552.113 508.699 551.194C506.929 550.274 505.556 548.74 504.836 546.88C504.117 545.02 504.1 542.961 504.791 541.09ZM513.559 557.543L508.08 559.276L508.174 553.204C509.526 553.837 510.999 554.166 512.492 554.169L513.559 557.543Z" fill="#9AB3D2"/>
</g>
<g clip-path="url(#clip7_86_2)">
<path d="M604.026 128.739C603.973 128.229 603.912 127.857 603.9 127.485C603.888 127.127 603.704 127.053 603.388 127.053C602.749 127.068 602.109 127.046 601.473 126.985C600.532 126.869 599.997 126.401 599.891 125.472C599.698 123.786 599.593 122.088 599.467 120.395C599.431 119.92 599.618 119.495 600.038 119.273C600.594 118.978 601.169 118.62 601.772 118.527C606.331 117.83 610.892 117.149 615.464 116.548C618.394 116.163 621.342 115.904 624.285 115.629C625.099 115.562 625.917 115.565 626.73 115.639C627.851 115.73 628.355 116.181 628.621 117.264C628.991 118.77 629.24 120.297 629.127 121.856C629.019 123.356 628.362 124.088 626.889 124.391C626.435 124.484 625.974 124.537 625.516 124.608C624.865 124.709 624.849 124.737 625.058 125.478C625.261 125.473 625.477 125.47 625.693 125.462C626.156 125.445 626.619 125.409 627.082 125.409C628.938 125.41 629.506 125.815 629.862 127.625C630.119 128.878 630.272 130.15 630.322 131.429C630.371 133.078 629.674 133.86 628.074 134.209C627.236 134.392 626.387 134.526 625.488 134.692C625.55 135.084 625.607 135.443 625.675 135.869C625.902 135.868 626.114 135.863 626.327 135.865C627.187 135.875 628.049 135.847 628.905 135.912C629.721 135.974 630.328 136.408 630.552 137.229C630.997 138.856 631.268 140.512 631.133 142.205C631.02 143.619 630.352 144.398 628.938 144.624C627.131 144.914 625.311 145.126 623.493 145.342C618.498 145.935 613.502 146.528 608.502 147.087C607.21 147.231 605.905 147.255 604.605 147.319C604.296 147.33 603.987 147.314 603.681 147.273C602.533 147.138 602 146.686 601.868 145.529C601.686 143.929 601.597 142.319 601.479 140.713C601.44 140.185 601.637 139.726 602.108 139.486C602.802 139.131 603.531 138.846 604.378 138.472C604.384 138.261 604.397 137.878 604.41 137.449C603.871 137.423 603.391 137.42 602.915 137.373C601.842 137.265 601.287 136.805 601.144 135.739C600.929 134.121 600.794 132.492 600.638 130.867C600.588 130.341 600.777 129.877 601.245 129.629C601.826 129.33 602.426 129.072 603.042 128.855C603.318 128.755 603.64 128.78 604.026 128.739ZM615.757 134.242C615.754 134.212 615.751 134.182 615.748 134.153C616.493 134.074 617.24 134.013 617.982 133.913C621.107 133.493 624.231 133.064 627.353 132.629C628.304 132.496 628.521 132.286 628.454 131.333C628.369 130.127 628.181 128.927 628.032 127.726C627.982 127.315 627.77 127.098 627.325 127.127C626.908 127.154 626.487 127.121 626.07 127.15C620.848 127.506 615.69 128.343 610.54 129.237C607.804 129.712 605.065 130.169 602.322 130.606C601.885 130.676 601.843 130.907 601.902 131.254C602.131 132.603 602.363 133.951 602.583 135.301C602.659 135.768 602.94 135.93 603.376 135.888C605.328 135.703 607.288 135.575 609.23 135.314C611.414 135.019 613.582 134.604 615.757 134.242ZM615.255 138.609L615.261 138.697C613.781 138.934 612.302 139.183 610.819 139.403C608.289 139.777 605.757 140.138 603.223 140.486C602.768 140.548 602.684 140.772 602.741 141.159C602.929 142.426 603.105 143.694 603.294 144.959C603.407 145.716 603.484 145.83 604.279 145.785C606.171 145.677 608.067 145.573 609.948 145.349C613.692 144.902 617.426 144.365 621.166 143.888C623.507 143.589 625.854 143.338 628.196 143.047C629.073 142.939 629.311 142.72 629.271 141.859C629.214 140.629 629.056 139.403 628.934 138.176C628.894 137.763 628.676 137.544 628.237 137.555C627.752 137.567 627.264 137.512 626.783 137.555C622.939 137.897 619.097 138.256 615.255 138.609ZM613.124 118.362L613.132 118.464C611.868 118.662 610.606 118.869 609.341 119.056C606.658 119.453 603.975 119.851 601.288 120.219C600.838 120.281 600.654 120.427 600.724 120.885C600.913 122.129 601.085 123.375 601.269 124.619C601.395 125.476 601.457 125.582 602.313 125.533C604.183 125.426 606.057 125.317 607.916 125.095C611.551 124.661 615.175 124.136 618.806 123.672C621.257 123.359 623.713 123.091 626.165 122.79C627.074 122.678 627.294 122.474 627.258 121.552C627.211 120.387 627.084 119.224 626.941 118.065C626.853 117.365 626.771 117.33 626.039 117.295C625.687 117.269 625.334 117.268 624.982 117.291C621.029 117.643 617.076 118 613.124 118.362ZM623.617 134.867L606.061 137.338C606.165 137.719 606.254 138.049 606.347 138.387L623.666 135.96C623.653 135.667 623.639 135.342 623.617 134.867ZM605.807 128.374L622.926 125.603C622.947 125.517 622.96 125.429 622.963 125.34C622.945 125.192 622.916 125.045 622.878 124.9L605.458 126.96C605.556 127.429 605.63 127.795 605.71 128.16C605.736 128.234 605.768 128.306 605.807 128.374L605.807 128.374Z" fill="#9AB3D2"/>
<path d="M610.06 132.724C608.833 132.913 607.243 133.16 605.652 133.399C605.37 133.442 605.06 133.526 604.804 133.451C604.573 133.384 604.291 133.154 604.232 132.941C604.186 132.773 604.394 132.416 604.578 132.328C604.979 132.144 605.404 132.022 605.841 131.964C609.004 131.504 612.169 131.057 615.335 130.622C615.641 130.583 615.95 130.571 616.258 130.587C616.622 130.6 616.915 130.77 616.971 131.152C617.028 131.534 616.788 131.798 616.45 131.9C616.008 132.034 615.555 132.13 615.096 132.185C613.541 132.366 611.983 132.521 610.06 132.724Z" fill="#9AB3D2"/>
<path d="M626.394 130.761C626.173 130.779 625.954 130.71 625.783 130.568C625.612 130.425 625.504 130.222 625.482 130.001C625.447 129.494 625.75 129.084 626.188 129.046C626.419 129.035 626.647 129.111 626.826 129.259C627.004 129.408 627.121 129.618 627.151 129.849C627.171 130.07 627.103 130.29 626.961 130.461C626.819 130.632 626.615 130.74 626.394 130.761Z" fill="#9AB3D2"/>
<path d="M623.591 131.148C623.37 131.171 623.149 131.106 622.975 130.968C622.801 130.829 622.688 130.628 622.66 130.407C622.606 129.943 622.874 129.644 623.391 129.593C623.925 129.54 624.292 129.81 624.325 130.281C624.337 130.492 624.267 130.7 624.131 130.861C623.994 131.022 623.801 131.125 623.591 131.148Z" fill="#9AB3D2"/>
<path d="M620.121 130.051C620.318 130.037 620.514 130.096 620.672 130.216C620.829 130.337 620.937 130.511 620.976 130.705C620.987 130.803 620.978 130.903 620.949 130.998C620.92 131.092 620.871 131.179 620.807 131.254C620.742 131.329 620.662 131.389 620.573 131.431C620.483 131.474 620.386 131.497 620.287 131.499C620.099 131.51 619.914 131.447 619.771 131.325C619.627 131.203 619.536 131.031 619.516 130.843C619.501 130.751 619.505 130.657 619.528 130.566C619.551 130.476 619.592 130.391 619.648 130.317C619.705 130.243 619.776 130.181 619.857 130.135C619.938 130.09 620.028 130.061 620.121 130.051Z" fill="#9AB3D2"/>
<path d="M611.303 142.847C609.705 143.016 608.107 143.185 606.509 143.354C606.247 143.39 605.983 143.412 605.719 143.42C605.355 143.419 605.061 143.274 605.003 142.877C604.948 142.511 605.178 142.288 605.494 142.189C605.87 142.063 606.257 141.971 606.65 141.916C609.864 141.527 613.079 141.148 616.296 140.779C616.578 140.747 616.896 140.7 617.145 140.795C617.396 140.892 617.729 141.138 617.757 141.353C617.784 141.57 617.529 141.897 617.31 142.053C617.094 142.206 616.773 142.237 616.491 142.269C614.762 142.462 613.031 142.64 611.301 142.823L611.303 142.847Z" fill="#9AB3D2"/>
<path d="M627.008 139.462C627.241 139.439 627.474 139.507 627.658 139.652C627.842 139.797 627.963 140.007 627.996 140.239C628.019 140.45 627.961 140.662 627.834 140.832C627.708 141.002 627.521 141.118 627.313 141.157C627.092 141.191 626.867 141.137 626.686 141.006C626.506 140.874 626.384 140.677 626.349 140.456C626.282 139.966 626.579 139.519 627.008 139.462Z" fill="#9AB3D2"/>
<path d="M623.507 140.752C623.452 140.293 623.73 139.976 624.228 139.929C624.756 139.88 625.126 140.153 625.162 140.62C625.175 140.83 625.107 141.037 624.972 141.198C624.837 141.359 624.646 141.462 624.437 141.486C624.217 141.51 623.996 141.446 623.823 141.309C623.649 141.172 623.536 140.972 623.507 140.752Z" fill="#9AB3D2"/>
<path d="M621.174 141.756C621.076 141.77 620.977 141.764 620.883 141.737C620.788 141.711 620.699 141.666 620.623 141.605C620.546 141.544 620.482 141.468 620.436 141.381C620.389 141.294 620.36 141.199 620.352 141.101C620.34 141.009 620.346 140.916 620.371 140.827C620.395 140.737 620.437 140.653 620.494 140.58C620.551 140.507 620.622 140.446 620.703 140.401C620.784 140.356 620.873 140.327 620.965 140.316C621.162 140.309 621.355 140.373 621.509 140.496C621.663 140.618 621.768 140.793 621.804 140.986C621.815 141.079 621.807 141.172 621.781 141.261C621.754 141.35 621.711 141.433 621.652 141.505C621.593 141.577 621.52 141.636 621.438 141.679C621.356 141.722 621.266 141.749 621.174 141.756Z" fill="#9AB3D2"/>
<path d="M609.333 122.577L604.604 123.077C604.34 123.105 604.079 123.143 603.815 123.16C603.431 123.186 603.084 123.088 602.997 122.665C602.901 122.192 603.238 121.986 603.622 121.879C604.003 121.768 604.392 121.686 604.785 121.634C607.802 121.267 610.82 120.909 613.84 120.559C614.254 120.511 614.688 120.458 615.088 120.535C615.229 120.57 615.361 120.634 615.476 120.724C615.59 120.814 615.684 120.928 615.751 121.057C615.894 121.407 615.623 121.688 615.286 121.815C615.019 121.916 614.74 121.983 614.457 122.015C612.749 122.206 611.04 122.381 609.332 122.562L609.333 122.577Z" fill="#9AB3D2"/>
<path d="M625.273 120.899C625.164 120.915 625.052 120.908 624.945 120.88C624.838 120.852 624.737 120.803 624.649 120.735C624.562 120.668 624.488 120.583 624.433 120.487C624.379 120.391 624.344 120.284 624.331 120.174C624.277 119.679 624.585 119.242 625.017 119.198C625.239 119.186 625.458 119.254 625.634 119.39C625.81 119.527 625.931 119.722 625.974 119.941C625.993 120.05 625.989 120.162 625.964 120.269C625.938 120.377 625.891 120.479 625.826 120.568C625.761 120.657 625.678 120.733 625.583 120.789C625.488 120.846 625.383 120.883 625.273 120.899Z" fill="#9AB3D2"/>
<path d="M622.434 121.223C622.325 121.238 622.215 121.231 622.109 121.203C622.003 121.176 621.904 121.127 621.816 121.061C621.729 120.994 621.656 120.911 621.601 120.817C621.546 120.722 621.51 120.617 621.495 120.509C621.433 120.044 621.7 119.728 622.2 119.677C622.731 119.623 623.102 119.888 623.146 120.351C623.164 120.561 623.099 120.769 622.966 120.932C622.834 121.095 622.642 121.2 622.434 121.223Z" fill="#9AB3D2"/>
<path d="M619.087 121.511C618.989 121.515 618.891 121.499 618.799 121.463C618.707 121.428 618.624 121.374 618.553 121.305C618.483 121.236 618.428 121.154 618.39 121.062C618.353 120.971 618.335 120.873 618.337 120.775C618.352 120.381 618.539 120.106 618.959 120.068C619.168 120.055 619.373 120.126 619.53 120.264C619.686 120.402 619.782 120.597 619.796 120.806C619.795 120.993 619.72 121.173 619.587 121.305C619.454 121.437 619.275 121.511 619.087 121.511Z" fill="#9AB3D2"/>
</g>
<g clip-path="url(#clip8_86_2)">
<path d="M102.012 90.5741C101.655 89.9547 101.395 88.969 101.69 87.8698C101.984 86.7707 102.702 86.0467 103.321 85.6891L101.793 83.5779C100.521 84.4152 99.64 85.7499 99.2473 87.2154C98.8546 88.6809 98.9504 90.2773 99.6329 91.6382L102.012 90.5741ZM109.017 89.8332C109.377 88.4899 108.573 87.0962 107.229 86.7363C105.886 86.3763 104.492 87.1809 104.132 88.5243C103.903 89.3792 104.163 90.365 104.797 90.9277L92.1358 108.871L94.7004 109.558L94.7332 109.436L102.124 105.788L106.701 112.643L106.669 112.765L109.233 113.452L107.24 91.5822C108.071 91.4121 108.788 90.6881 109.017 89.8332ZM97.874 105.042L99.7912 102.283L100.751 103.587L97.874 105.042ZM106.179 107.267L101.423 100.102L105.037 94.9187L106.179 107.267ZM96.8048 86.5609C97.2956 84.729 98.4865 83.2156 100.443 81.7764L98.8815 79.7873C96.4606 81.4947 94.984 83.586 94.3622 85.9064C93.7405 88.2268 93.9736 90.7763 95.2165 93.4654L97.4738 92.3686C96.5885 90.2989 96.3139 88.3928 96.8048 86.5609ZM111.357 94.7797C112.629 93.9423 113.51 92.6077 113.902 91.1422C114.295 89.6767 114.199 88.0803 113.517 86.7194L111.137 87.7834C111.495 88.4028 111.754 89.3886 111.46 90.4877C111.165 91.5869 110.448 92.3108 109.828 92.6684L111.357 94.7797ZM117.933 84.8922L115.676 85.9889C116.561 88.0587 116.836 89.9648 116.345 91.7967C115.854 93.6285 114.663 95.142 112.707 96.5812L114.113 98.6597C116.689 96.8628 118.166 94.7715 118.787 92.4511C119.409 90.1307 119.176 87.5813 117.933 84.8922Z" fill="#9AB3D2"/>
</g>
<g clip-path="url(#clip9_86_2)">
<path d="M278.477 410.188C277.893 409.741 277.258 408.907 277.105 407.746C276.952 406.586 277.348 405.616 277.796 405.032L275.511 403.629C274.634 404.925 274.322 406.54 274.527 408.087C274.731 409.634 275.451 411.113 276.636 412.137L278.477 410.188ZM284.84 406.724C284.652 405.306 283.339 404.299 281.921 404.487C280.503 404.674 279.496 405.988 279.683 407.406C279.802 408.308 280.437 409.142 281.262 409.427L276.304 431.462L279.011 431.104L278.994 430.975L284.578 424.597L291.628 429.305L291.645 429.434L294.352 429.077L283.84 409.086C284.563 408.597 284.959 407.627 284.84 406.724ZM280.247 425.563L280.981 422.187L282.406 423.048L280.247 425.563ZM289.013 424.405L281.671 419.472L283.062 413.124L289.013 424.405ZM271.948 408.428C271.693 406.494 272.228 404.587 273.519 402.449L271.252 401.175C269.625 403.751 269.047 406.319 269.37 408.769C269.694 411.218 270.92 413.548 273.16 415.613L274.873 413.682C273.216 412.064 272.204 410.362 271.948 408.428ZM289.011 410.501C289.889 409.205 290.201 407.59 289.996 406.043C289.792 404.496 289.072 403.017 287.887 401.993L286.046 403.942C286.63 404.389 287.265 405.223 287.418 406.384C287.571 407.544 287.175 408.514 286.727 409.098L289.011 410.501ZM291.363 398.517L289.65 400.448C291.307 402.066 292.319 403.768 292.574 405.702C292.83 407.636 292.295 409.543 291.004 411.681L293.159 413.101C294.898 410.379 295.476 407.811 295.153 405.361C294.829 402.912 293.603 400.582 291.363 398.517Z" fill="#9AB3D2"/>
</g>
<defs>
<clipPath id="clip0_86_2">
<rect width="30.6897" height="30.6897" fill="white" transform="translate(467.639 273.804) rotate(32.542)"/>
</clipPath>
<clipPath id="clip1_86_2">
<rect width="30.6958" height="30.6958" fill="white" transform="translate(118.076 556.018) rotate(-5.119)"/>
</clipPath>
<clipPath id="clip2_86_2">
<rect width="30.0835" height="30.0835" fill="white" transform="translate(272.98 189.391) rotate(-23.2816)"/>
</clipPath>
<clipPath id="clip3_86_2">
<rect width="26.7937" height="26.7937" fill="white" transform="translate(387.586 39.2812) rotate(-13.5577)"/>
</clipPath>
<clipPath id="clip4_86_2">
<rect width="29.4088" height="29.4088" fill="white" transform="translate(641.393 404.08) rotate(7.0615)"/>
</clipPath>
<clipPath id="clip5_86_2">
<rect width="32.1482" height="32.1482" fill="white" transform="translate(41.2379 299.906) rotate(3.99176)"/>
</clipPath>
<clipPath id="clip6_86_2">
<rect width="32.7602" height="32.7602" fill="white" transform="translate(491.25 534.534) rotate(-17.5486)"/>
</clipPath>
<clipPath id="clip7_86_2">
<rect width="30.0736" height="29.7023" fill="white" transform="translate(598.924 118.259) rotate(-6.03614)"/>
</clipPath>
<clipPath id="clip8_86_2">
<rect width="30.3441" height="30.3441" fill="white" transform="translate(93.8831 77.9243) rotate(15)"/>
</clipPath>
<clipPath id="clip9_86_2">
<rect width="31.2079" height="31.2079" fill="white" transform="translate(265.77 401.375) rotate(-7.52838)"/>
</clipPath>
</defs>
</svg>
