<svg width="21" height="29" viewBox="0 0 21 29" fill="none" xmlns="http://www.w3.org/2000/svg">
<path d="M20.0624 8.76143L20.9705 2.48006L3.81548 2.35948e-07L2.90739 6.28137C2.80661 6.97467 2.8434 7.68104 3.01568 8.36011C3.18796 9.03919 3.49235 9.67767 3.91145 10.2391L6.64515 13.881L2.99192 16.5996C1.8656 17.4532 1.11773 18.7134 0.908081 20.1109L-3.80555e-06 26.3923L17.155 28.8724L18.0631 22.591C18.2578 21.1913 17.8975 19.7709 17.059 18.6333L14.3253 14.9913L17.9785 12.2727C18.5395 11.853 19.0122 11.3269 19.3698 10.7244C19.7273 10.1219 19.9627 9.45489 20.0624 8.76143ZM17.4232 8.37988C17.3192 9.07829 16.9424 9.70695 16.3756 10.128L12.205 13.2568C11.7807 13.5743 11.4997 14.0473 11.4239 14.5719C11.3481 15.0964 11.4835 15.6296 11.8006 16.0544L14.9143 20.2362C15.3387 20.8006 15.5219 21.5102 15.4238 22.2094L14.8973 25.8516L3.02077 24.1346L3.54731 20.4925C3.65129 19.7941 4.02802 19.1654 4.59487 18.7444L8.76546 15.6156C9.18979 15.298 9.47073 14.825 9.54656 14.3005C9.6224 13.7759 9.48692 13.2427 9.1699 12.818L6.0562 8.63613C5.6318 8.0718 5.44854 7.36218 5.54662 6.66291L6.07316 3.02078L17.9497 4.73774L17.4232 8.37988Z" fill="#003972"/>
</svg>
