<svg width="20" height="20" viewBox="0 0 20 20" fill="none" xmlns="http://www.w3.org/2000/svg">
<g clip-path="url(#clip0_22_58)">
<path d="M8.32814 11.8828L7.64845 12.6484C7.12484 13.1711 6.45803 13.5269 5.7323 13.6708C5.00656 13.8146 4.25447 13.7401 3.57105 13.4567C2.88764 13.1733 2.30358 12.6936 1.89267 12.0784C1.48176 11.4631 1.26245 10.7399 1.26245 10C1.26245 9.26015 1.48176 8.53689 1.89267 7.92163C2.30358 7.30638 2.88764 6.82673 3.57105 6.5433C4.25447 6.25987 5.00656 6.18538 5.7323 6.32924C6.45803 6.4731 7.12484 6.82886 7.64845 7.35156L12.3516 12.6484C12.8752 13.1711 13.542 13.5269 14.2677 13.6708C14.9935 13.8146 15.7456 13.7401 16.429 13.4567C17.1124 13.1733 17.6964 12.6936 18.1074 12.0784C18.5183 11.4631 18.7376 10.7399 18.7376 10C18.7376 9.26015 18.5183 8.53689 18.1074 7.92163C17.6964 7.30638 17.1124 6.82673 16.429 6.5433C15.7456 6.25987 14.9935 6.18538 14.2677 6.32924C13.542 6.4731 12.8752 6.82886 12.3516 7.35156L11.6719 8.11719" stroke="#003972" stroke-width="2" stroke-linecap="round" stroke-linejoin="round"/>
</g>
<defs>
<clipPath id="clip0_22_58">
<rect width="20" height="20" fill="white"/>
</clipPath>
</defs>
</svg>
